<svg width="38" height="46" viewBox="0 0 38 46" fill="none" xmlns="http://www.w3.org/2000/svg">
<path d="M23 18.5714H19.8571C19.7011 18.5714 19.5714 18.4417 19.5714 18.2857C19.5714 18.1297 19.7011 18 19.8571 18H23C23.156 18 23.2857 18.1297 23.2857 18.2857C23.2857 18.4417 23.156 18.5714 23 18.5714ZM27.7143 15.4285H19.8571C19.7011 15.4285 19.5714 15.2988 19.5714 15.1428C19.5714 14.9868 19.7011 14.8571 19.8571 14.8571H27.7143C27.8703 14.8571 28 14.9868 28 15.1428C28 15.2988 27.8703 15.4285 27.7143 15.4285ZM25.3571 21.7143H19.8571C19.7011 21.7143 19.5714 21.5845 19.5714 21.4285C19.5714 21.2725 19.7011 21.1428 19.8571 21.1428H25.3571C25.5131 21.1428 25.6428 21.2725 25.6428 21.4285C25.6428 21.5845 25.5131 21.7143 25.3571 21.7143Z" fill="#171718" stroke="white"/>
<path d="M5.72214 2.57141H3.53393C2.13536 2.57141 1 3.70677 1 5.10534V42.6428C1 41.3425 2.05679 40.2857 3.35714 40.2857H32.4404C33.3007 40.2857 34 39.5864 34 38.7261V4.13105C34 3.2707 33.3007 2.57141 32.4404 2.57141H16.7811" stroke="white" stroke-width="1.5625" stroke-miterlimit="10" stroke-linecap="round" stroke-linejoin="round"/>
<path d="M1 42.7332C1 43.9864 2.01357 45 3.26679 45H35.8464C36.5614 45 37.1429 44.4186 37.1429 43.7036V7.01072C37.1429 6.29572 36.5614 5.71429 35.8464 5.71429H34.1846" stroke="white" stroke-width="1.61641" stroke-miterlimit="10" stroke-linecap="round" stroke-linejoin="round"/>
<path d="M1.78174 35.5793V37.1507" stroke="white" stroke-width="1.5625" stroke-miterlimit="10" stroke-linecap="round" stroke-linejoin="round"/>
<path d="M5.70642 35.5793V37.1507" stroke="white" stroke-width="1.5625" stroke-miterlimit="10" stroke-linecap="round" stroke-linejoin="round"/>
<path d="M9.6272 35.5793V37.1507" stroke="white" stroke-width="1.5625" stroke-miterlimit="10" stroke-linecap="round" stroke-linejoin="round"/>
<path d="M13.5518 35.5793V37.1507" stroke="white" stroke-width="1.5625" stroke-miterlimit="10" stroke-linecap="round" stroke-linejoin="round"/>
<path d="M17.4764 35.5793V37.1507" stroke="white" stroke-width="1.5625" stroke-miterlimit="10" stroke-linecap="round" stroke-linejoin="round"/>
<path d="M21.3971 35.5793V37.1507" stroke="white" stroke-width="1.5625" stroke-miterlimit="10" stroke-linecap="round" stroke-linejoin="round"/>
<path d="M25.3218 35.5793V37.1507" stroke="white" stroke-width="1.5625" stroke-miterlimit="10" stroke-linecap="round" stroke-linejoin="round"/>
<path d="M29.2465 35.5793V37.1507" stroke="white" stroke-width="1.5625" stroke-miterlimit="10" stroke-linecap="round" stroke-linejoin="round"/>
<path d="M33.1671 35.5793V37.1507" stroke="white" stroke-width="1.5625" stroke-miterlimit="10" stroke-linecap="round" stroke-linejoin="round"/>
<path d="M15.4728 32.3264L11.6699 29.6079C11.3989 29.4154 11.0296 29.4154 10.7585 29.6079L6.95566 32.3264C6.60209 32.5779 6.11102 32.4954 5.85959 32.1418C5.76531 32.0082 5.71423 31.8511 5.71423 31.69V1.78571C5.71423 1.35357 6.0678 1 6.49995 1H15.9285C16.3607 1 16.7142 1.35357 16.7142 1.78571V31.69C16.7103 32.1221 16.3607 32.4757 15.9246 32.4718C15.7635 32.4718 15.6064 32.4207 15.4728 32.3264Z" stroke="white" stroke-width="1.5625" stroke-miterlimit="10"/>
</svg>
